<?xml version="1.0" encoding="UTF-8" standalone="no"?>
<svg
   xmlns:dc="http://purl.org/dc/elements/1.1/"
   xmlns:cc="http://creativecommons.org/ns#"
   xmlns:rdf="http://www.w3.org/1999/02/22-rdf-syntax-ns#"
   xmlns:svg="http://www.w3.org/2000/svg"
   xmlns="http://www.w3.org/2000/svg"
   xmlns:sodipodi="http://sodipodi.sourceforge.net/DTD/sodipodi-0.dtd"
   xmlns:inkscape="http://www.inkscape.org/namespaces/inkscape"
   data-name="Layer 1"
   height="24"
   id="Layer_1"
   viewBox="0 0 24 24"
   width="24"
   version="1.1"
   sodipodi:docname="pluginIcon.svg"
   inkscape:version="0.92.4 (5da689c313, 2019-01-14)">
  <metadata
     id="metadata21">
    <rdf:RDF>
      <cc:Work
         rdf:about="">
        <dc:format>image/svg+xml</dc:format>
        <dc:type
           rdf:resource="http://purl.org/dc/dcmitype/StillImage" />
      </cc:Work>
    </rdf:RDF>
  </metadata>
  <defs
     id="defs19" />
  <sodipodi:namedview
     pagecolor="#ffffff"
     bordercolor="#666666"
     borderopacity="1"
     objecttolerance="10"
     gridtolerance="10"
     guidetolerance="10"
     inkscape:pageopacity="0"
     inkscape:pageshadow="2"
     inkscape:window-width="1920"
     inkscape:window-height="1001"
     id="namedview17"
     showgrid="false"
     inkscape:zoom="13.906433"
     inkscape:cx="8.4992115"
     inkscape:cy="9.4172466"
     inkscape:window-x="-9"
     inkscape:window-y="-9"
     inkscape:window-maximized="1"
     inkscape:current-layer="Layer_1" />
  <title
     id="title2" />
  <path
     d="M6,10,1,8A26.7756,26.7756,0,0,0,4,19l2-2,3,1,3,4,3-4,3-1,2,2A26.38858,26.38858,0,0,0,23,8l-5,2Z"
     style="fill:#4b5661"
     id="path4" />
  <path
     d="M16,11H8V2.6036a.25.25,0,0,1,.4268-.1768L10,4h4l1.5732-1.5732A.25.25,0,0,1,16,2.6036Z"
     style="fill:#4b5661"
     id="path6" />
  <path
     d="M9.4245,7.8684h0a1.127,1.127,0,0,1,0-1.5938h0c.4401-.4402,2.034,1.1537,1.5938,1.5938h0A1.127,1.127,0,0,1,9.4245,7.8684Z"
     style="fill:#fa6d62"
     id="path8" />
  <path
     d="M14.5755,7.8684h0a1.127,1.127,0,0,1-1.5938,0h0c-.4402-.4401,1.1537-2.034,1.5938-1.5938h0A1.127,1.127,0,0,1,14.5755,7.8684Z"
     style="fill:#fa6d62"
     id="path10" />
  <polygon
     points="10 12 9 10 11 10 10 12"
     style="fill:#fff"
     id="polygon12" />
  <polygon
     points="14 12 13 10 15 10 14 12"
     style="fill:#fff"
     id="polygon14" />
  <path
     style="fill:#ff0000;fill-opacity:1;stroke-width:0.01797729"
     d="M 9.9266543,8.1495448 C 9.5605052,8.0536537 9.2544752,7.7495443 9.1404981,7.3683222 c -0.043991,-0.1471378 -0.043991,-0.4461128 0,-0.5932506 0.069814,-0.2335079 0.2484372,-0.4977089 0.3707481,-0.5483718 0.03387,-0.01403 0.094531,-0.019186 0.1577714,-0.013411 0.4622544,0.04221 1.2643764,0.8022049 1.3982674,1.324831 0.0443,0.1729281 0.02565,0.2411568 -0.09867,0.3608721 -0.25862,0.2490404 -0.670006,0.3479639 -1.0419567,0.2505532 z"
     id="path33"
     inkscape:connector-curvature="0" />
  <path
     style="fill:#d35f8d;fill-opacity:1;stroke-width:0.01797729"
     d="M 13.487698,8.149936 C 13.221594,8.080221 12.943135,7.875573 12.916672,7.7302718 c -0.04286,-0.2353485 0.198776,-0.6543775 0.598497,-1.0378615 0.307273,-0.2947915 0.599422,-0.4627271 0.831813,-0.4781494 0.141552,-0.00939 0.194779,0.018248 0.305946,0.1588844 0.163021,0.2062378 0.238607,0.4275247 0.238607,0.6985516 0,0.2044405 -0.03632,0.3549174 -0.128002,0.5303301 -0.08372,0.1601753 -0.277515,0.3585411 -0.436348,0.4466355 -0.240834,0.133576 -0.566312,0.1728407 -0.839487,0.1012735 z"
     id="path35"
     inkscape:connector-curvature="0" />
  <path
     style="fill:#cd87de;fill-opacity:1;stroke-width:0.07190917"
     d="M 9.7863856,8.0703535 C 9.0979227,7.6905155 8.917293,6.8350393 9.4248712,6.3581943 L 9.6042915,6.1896377 9.9026398,6.324174 c 0.5470802,0.246699 1.1786512,1.0004748 1.1285422,1.3469095 -0.05242,0.3624531 -0.848637,0.6178388 -1.2447964,0.39927 z"
     id="path37"
     inkscape:connector-curvature="0" />
  <path
     style="fill:#ff5599;fill-opacity:1;stroke-width:0.07190917"
     d="M 13.227894,8.0200494 C 12.930143,7.832909 12.894156,7.7629182 12.954476,7.4882828 c 0.07103,-0.3234085 0.923093,-1.1670513 1.25156,-1.2391946 0.220097,-0.048342 0.269231,-0.028931 0.456062,0.1801684 0.194112,0.2172495 0.207252,0.2679043 0.1801,0.6943053 -0.02645,0.4154338 -0.05469,0.4853636 -0.291734,0.7224052 -0.230943,0.2309426 -0.312519,0.2656632 -0.679579,0.2892421 -0.323884,0.020805 -0.467622,-0.00494 -0.642991,-0.1151598 z"
     id="path39"
     inkscape:connector-curvature="0" />
  <path
     style="fill:#ff5599;fill-opacity:1;stroke-width:0.07190917"
     d="M 9.9387828,8.0736326 C 9.5113065,7.95814 9.1751577,7.4897517 9.1751577,7.0096006 c 0,-0.2200475 0.052786,-0.3488258 0.2219657,-0.5415104 0.2213977,-0.2521581 0.2225478,-0.2525052 0.4494322,-0.1356626 0.3821414,0.1967981 0.6947874,0.465285 0.9156904,0.7863576 0.240047,0.3488951 0.26762,0.6018873 0.08374,0.768299 C 10.67377,8.042935 10.191909,8.1420205 9.9387828,8.0736326 Z"
     id="path41"
     inkscape:connector-curvature="0" />
</svg>
